<?xml version="1.0" standalone="no"?>
<svg xmlns:xlink="http://www.w3.org/1999/xlink" id="wave" style="transform:rotate(0deg); transition: 0.3s" viewBox="0 0 1440 240" version="1.1" xmlns="http://www.w3.org/2000/svg"><defs><linearGradient id="sw-gradient-0" x1="0" x2="0" y1="1" y2="0"><stop stop-color="rgba(249, 153, 38, 1)" offset="0%"/><stop stop-color="rgba(249, 153, 38, 1)" offset="100%"/></linearGradient></defs><path style="transform:translate(0, 0px); opacity:1" fill="url(#sw-gradient-0)" d="M0,120L40,120C80,120,160,120,240,112C320,104,400,88,480,92C560,96,640,120,720,140C800,160,880,176,960,156C1040,136,1120,80,1200,72C1280,64,1360,104,1440,100C1520,96,1600,48,1680,28C1760,8,1840,16,1920,24C2000,32,2080,40,2160,44C2240,48,2320,48,2400,56C2480,64,2560,80,2640,88C2720,96,2800,96,2880,116C2960,136,3040,176,3120,176C3200,176,3280,136,3360,104C3440,72,3520,48,3600,44C3680,40,3760,56,3840,64C3920,72,4000,72,4080,80C4160,88,4240,104,4320,108C4400,112,4480,104,4560,92C4640,80,4720,64,4800,52C4880,40,4960,32,5040,24C5120,16,5200,8,5280,4C5360,0,5440,0,5520,4C5600,8,5680,16,5720,20L5760,24L5760,240L5720,240C5680,240,5600,240,5520,240C5440,240,5360,240,5280,240C5200,240,5120,240,5040,240C4960,240,4880,240,4800,240C4720,240,4640,240,4560,240C4480,240,4400,240,4320,240C4240,240,4160,240,4080,240C4000,240,3920,240,3840,240C3760,240,3680,240,3600,240C3520,240,3440,240,3360,240C3280,240,3200,240,3120,240C3040,240,2960,240,2880,240C2800,240,2720,240,2640,240C2560,240,2480,240,2400,240C2320,240,2240,240,2160,240C2080,240,2000,240,1920,240C1840,240,1760,240,1680,240C1600,240,1520,240,1440,240C1360,240,1280,240,1200,240C1120,240,1040,240,960,240C880,240,800,240,720,240C640,240,560,240,480,240C400,240,320,240,240,240C160,240,80,240,40,240L0,240Z"/></svg>