<svg id="Layer_1" data-name="Layer 1" xmlns="http://www.w3.org/2000/svg" viewBox="0 0 772 1123"><defs><style>.cls-1{fill:#f67959;}.cls-2{fill:#232019;}</style></defs><title>Logo only</title><path class="cls-1" d="M270.74,550.72c-21.1,11-42.66,17.54-65.89,23.67a285.77,285.77,0,0,1-.31-36c2.55-48.12,14-94,35.79-137Q303.9,276,434.45,223.54c37.3-15.06,75.9-24.37,116.1-27,9.37-.61,9.75-1.64,6.66-10.56-13.6-39.28-36.35-71.76-71.75-94.17-17.4-11-16.61-32-7.51-45.26,11.9-17.3,30.59-21.55,47-10.47,20,13.49,35.79,31.31,51,49.71,24.76,29.91,39.74,64.57,49.26,101.81,1.67,6.52,4.78,9.13,11.56,10.12,46.52,6.78,91.76,18.15,133.36,40.89,17.55,9.59,34.34,20.46,49.49,33.68,9,7.83,12.66,19.41,6.79,26-8.54,9.59-19.23,15.77-30.66,8.82-10.06-6.11-19.7-12.95-30-18.57A341.36,341.36,0,0,0,734,273.69a299.85,299.85,0,0,0-66.87-19c-18.68-3.08-37.53-4.68-56.45-3.3-17.69,1.29-30,14.59-34.94,35.25-9.77,40.87-12.61,82.37-9.63,124,5.45,76.09,31.88,143.49,85.57,199.26a405.19,405.19,0,0,0,97.57,74.32c5.37,3,7.11,5.82,6,12.23-13.12,73.85-49.3,134.24-105.5,183.26a464.76,464.76,0,0,1-46.67,36.19c-4.37,2.93-7.62,3-11.82.12C540.07,881.13,496.65,839,467.62,783.47c-14.82-28.33-23.14-58.93-29.64-90.05-1.09-5.24.23-9,5.37-12.25,34.82-22.11,64.24-50.09,88.85-83.16a50.38,50.38,0,0,0,3.32-4.69c5.62-9.77,4.21-18.69-3.69-24-8.4-5.63-17.18-3.49-23.9,6.09C465.66,635.74,407,672.78,338.06,695.31c-5.21,1.71-8.24.2-11-4C305,657.13,286.25,621.5,277.76,581.17,275.7,571.37,275.23,561.12,270.74,550.72Z" transform="translate(-204.12 -30)"/><path class="cls-1" d="M549,927.13c14,8.92,27.3,17,40.08,25.72,5.93,4.07,10.46,3.76,16.21-.17,12.61-8.6,25.63-16.6,39.37-25.41,6.93,11.85,14.65,23.05,22.17,34.35,17.89,26.85,39.71,50.19,63.51,71.73,4.58,4.14,4.44,6.72,1.21,11.45-28.31,41.4-67.33,70.65-109.1,96.83-2.78,1.74-5.91,3-8.41,5.09-10.78,8.92-20.69,7.64-32.49.53-44.18-26.6-85.49-56.32-116.23-98.65-2.21-3-4.25-6.24-6.9-10.14C495.45,1006.86,525.17,969.71,549,927.13Z" transform="translate(-204.12 -30)"/><path class="cls-1" d="M247.09,596.9c5.71,21,13.93,40.05,22.49,58.94,12.31,27.13,29.9,50.88,47.4,74.72,2.36,3.22,4.76,3.41,8.46,2.42,26.19-7,51.4-16.63,76-27.84,1.46-.67,2.88-1.39,4.58-2.21,3.13,3.31,2,7.5,2.79,11a325.68,325.68,0,0,0,15,48.49c2.23,5.62,1.28,9.57-2.65,14-28.38,31.62-60.31,58.8-97.58,79.51-9.79,5.44-19.51,11-29.74,15.61-5,2.26-8,1.74-11.1-2.65-24.44-35.05-43.82-72.43-54.32-114.15A331.06,331.06,0,0,1,219,648.89c1-13.34,3.35-26.57,5.15-39.84.43-3.21,2-5.55,5.36-6.55C235,600.88,240.41,599.05,247.09,596.9Z" transform="translate(-204.12 -30)"/><path class="cls-1" d="M787.34,704.35c13.9,5,27.37,10.17,41,14.75a442.28,442.28,0,0,0,48.15,13.08c4,.85,6.56-.25,8.86-3.85,20.32-31.88,39.06-64.47,48.66-101.51,2.89-11.14,11.56-17.78,21.06-17.11S971,617.48,973.27,629c2.73,14.06,2.76,28.34,2.84,42.5.24,40.53-6.37,80.13-20.89,118A330.22,330.22,0,0,1,911.55,869c-3.29,4.39-6.09,4.92-10.95,2.47-46.8-23.64-89.47-52.66-124.06-92.69-5.64-6.54-8.3-11.58-4.13-20.67,7-15.12,9.51-31.83,12.93-48.13A45.9,45.9,0,0,1,787.34,704.35Z" transform="translate(-204.12 -30)"/><path class="cls-1" d="M753.16,801.74C765,814.28,776.38,826,789,836.57c24.85,20.78,50.58,40.13,79.74,54.52,5.29,2.62,6.68,5.74,4.68,11.75-16.63,49.83-45.93,91.59-81.37,129.58-4.11,4.42-7.7,2.93-11.45,0-21.48-16.55-42.51-33.58-60.12-54.44s-34.28-42-46.41-66.48c-2-4.09-3-6.93,1-10.65,29.87-28,56.79-58.45,75.23-95.52C750.73,804.42,751.59,803.67,753.16,801.74Z" transform="translate(-204.12 -30)"/><path class="cls-1" d="M440.54,801.26c8.61,15.24,16.95,28,25.65,40.52,14.92,21.53,33.25,39.89,52,57.88,4.42,4.25,5.07,7.19,2.22,12.48-26.15,48.6-63,87.62-106.73,120.72-4.78,3.63-7.66,2.85-11.62-1.29-36.16-37.84-64.81-80.3-81.79-130.21-2.38-7,2.54-8.27,6.3-10.18A368.6,368.6,0,0,0,379.25,858c19.13-14.23,37.64-29.18,53.29-47.33C434.86,808,437.13,805.28,440.54,801.26Z" transform="translate(-204.12 -30)"/><path class="cls-2" d="M773.28,426.29a55.33,55.33,0,0,1,55-55.51c30.32-.27,55.89,25.29,55.78,55.78a55.25,55.25,0,0,1-55.63,54.85C797.31,481.08,773.28,457.05,773.28,426.29Zm54.42,17.15a19.12,19.12,0,0,0,19.55-18.95c0-10.13-9.42-19.6-19.39-19.48a19.62,19.62,0,0,0-19,18.85A19,19,0,0,0,827.7,443.44Z" transform="translate(-204.12 -30)"/><path class="cls-2" d="M724.06,426.48c-.11,11.1-7.35,18-18.82,17.93-10.86-.06-19-8.1-18.72-18.61.2-9.57,9.81-18.83,19.42-18.71C716.06,407.21,724.16,415.88,724.06,426.48Z" transform="translate(-204.12 -30)"/></svg>