<!--?xml version="1.0" standalone="no"?-->
              <svg id="sw-js-blob-svg" viewBox="0 0 100 100" xmlns="http://www.w3.org/2000/svg" version="1.1">
                    <defs> 
                        <linearGradient id="sw-gradient" x1="0" x2="1" y1="1" y2="0">
                            <stop id="stop1" stop-color="rgba(248, 130, 49, 1)" offset="0%"></stop>
                            <stop id="stop2" stop-color="rgba(251, 168, 31, 1)" offset="100%"></stop>
                        </linearGradient>
                    </defs>
                <path fill="url(#sw-gradient)" d="M22.8,-26.7C30.6,-20.7,38.5,-14.5,39.8,-7C41.1,0.4,35.8,9,30.1,16.1C24.4,23.1,18.4,28.6,11.6,30.6C4.7,32.5,-2.9,30.9,-11.5,28.9C-20.1,27,-29.6,24.8,-34.7,18.7C-39.8,12.6,-40.5,2.7,-38.5,-6.5C-36.5,-15.6,-31.8,-23.9,-24.9,-30C-18,-36.2,-9,-40.1,-0.7,-39.2C7.6,-38.4,15.1,-32.7,22.8,-26.7Z" width="100%" height="100%" transform="translate(50 50)" stroke-width="0" style="transition: 0.3s;" stroke="url(#sw-gradient)"></path>
              </svg>