<?xml version="1.0" standalone="no"?><svg xmlns="http://www.w3.org/2000/svg" viewBox="0 0 1440 320"><path fill="#F1A500" fill-opacity="1" d="M0,160L40,165.3C80,171,160,181,240,197.3C320,213,400,235,480,240C560,245,640,235,720,224C800,213,880,203,960,181.3C1040,160,1120,128,1200,128C1280,128,1360,160,1400,176L1440,192L1440,320L1400,320C1360,320,1280,320,1200,320C1120,320,1040,320,960,320C880,320,800,320,720,320C640,320,560,320,480,320C400,320,320,320,240,320C160,320,80,320,40,320L0,320Z"></path></svg>